<svg width="50" height="50" viewBox="0 0 50 50" fill="none" xmlns="http://www.w3.org/2000/svg">
    <path d="M35.5175 0H14.4804C12.467 0 10.8418 1.63253 10.8418 3.64223V46.3614C10.8418 48.3693 12.467 50 14.4804 50H35.5175C37.5272 50 39.1561 48.3693 39.1561 46.3614V3.64223C39.1561 1.63253 37.5272 0 35.5175 0ZM19.808 2.21194H30.1935C30.4559 2.21194 30.6691 2.60367 30.6691 3.08833C30.6691 3.57299 30.4559 3.96655 30.1935 3.96655H19.808C19.5438 3.96655 19.3343 3.57299 19.3343 3.08833C19.3343 2.60367 19.5438 2.21194 19.808 2.21194ZM25.0007 46.4051C23.7199 46.4051 22.6777 45.3629 22.6777 44.0802C22.6777 42.7975 23.7199 41.759 25.0007 41.759C26.278 41.759 27.3202 42.7975 27.3202 44.0802C27.3202 45.3629 26.278 46.4051 25.0007 46.4051ZM36.4303 38.4447H13.5694V6.14569H36.4303V38.4447Z" fill="white"/>
</svg>
