<svg width="51" height="51" viewBox="0 0 51 51" fill="none" xmlns="http://www.w3.org/2000/svg">
    <path d="M25.5 46.75C37.236 46.75 46.75 37.236 46.75 25.5C46.75 13.7639 37.236 4.25 25.5 4.25C13.7639 4.25 4.25 13.7639 4.25 25.5C4.25 37.236 13.7639 46.75 25.5 46.75Z" stroke="white" stroke-width="5" stroke-linecap="round" stroke-linejoin="round"/>
    <path d="M19.3164 19.125C19.816 17.7048 20.8021 16.5072 22.1001 15.7444C23.398 14.9816 24.9241 14.7027 26.4079 14.9573C27.8918 15.2118 29.2376 15.9832 30.2072 17.135C31.1767 18.2867 31.7074 19.7445 31.7052 21.25C31.7052 25.5 25.3302 27.625 25.3302 27.625" stroke="white" stroke-width="5" stroke-linecap="round" stroke-linejoin="round"/>
    <path d="M25.5 36.125H25.5213" stroke="white" stroke-width="5" stroke-linecap="round" stroke-linejoin="round"/>
</svg>
